<svg width="25" height="25" viewBox="0 0 25 25" xmlns="http://www.w3.org/2000/svg"><path fill-rule="evenodd" clip-rule="evenodd" d="M0 12.5C0 5.59692 5.59692 0 12.5 0 19.4031 0 25 5.59692 25 12.5 25 19.4031 19.4031 25 12.5 25 5.59692 25 0 19.4031 0 12.5Zm14.6407 3.2196c-.3383-.3921-.6508-.7542-.918-.6678-.4473.1435-.4329 1.1201-.4329 1.1201s.0046.2088-.0991.32c-.1111.1194-.3283.1444-.3283.1444h-.7201s-1.5892.0977-2.98757-1.3757c-1.52529-1.6049-2.87231-4.7912-2.87231-4.7912s-.07733-.2084.00695-.3093c.09492-.1139.3533-.1213.3533-.1213l1.71978-.0111s.16207.0273.27783.1129c.09724.0723.15095.2042.15095.2042s.27737.7104.64457 1.3531c.7191 1.2567 1.0534 1.5308 1.2979 1.3965.3561-.1958.2501-1.7753.2501-1.7753s.0055-.5728-.1801-.8284c-.1445-.1973-.4145-.2551-.5349-.2713-.0958-.013.0621-.23944.2681-.3427.3103-.15234.8576-.16206 1.5022-.15234.5042.00463.6487.03612.8464.08427.456.11132.4419.46897.4114 1.24097-.0091.2299-.0196.4965-.0196.8043 0 .07-.0021.1446-.0042.2214-.0109.394-.0233.8444.2329 1.0122.1334.0866.4552.013 1.2614-1.3711.3559-.6103.6288-1.3209.665-1.4152.0026-.0068.004-.0104.0041-.0105.0681-.1834.2176-.238.394-.2385l1.812-.0125s.5431-.06483.632.1848c.0926.2593-.2033.8682-.9427 1.8651-.7025.9467-1.0442 1.2941-1.0119 1.6022.0236.2242.2451.4276.6697.8261.8943.8389 1.1312 1.2778 1.187 1.3812.0043.0081.0076.0141.0099.0181.3973.6677-.4431.7196-.4431.7196l-1.6082.0231s-.3468.0681-.7997-.2472c-.2391-.165-.4725-.4355-.6948-.6931Z"/></svg>
