<svg width="25" height="25" viewBox="0 0 25 25" xmlns="http://www.w3.org/2000/svg"><path fill-rule="evenodd" clip-rule="evenodd" d="M0 12.5C0 5.59692 5.59692 0 12.5 0 19.4031 0 25 5.59692 25 12.5 25 19.4031 19.4031 25 12.5 25 5.59692 25 0 19.4031 0 12.5Zm14.3095-3.92937c0-.92752-.7307-1.68182-1.6292-1.68182s-1.6292.7543-1.6292 1.68182c0 .92472.7307 1.67897 1.6292 1.67897s1.6292-.75425 1.6292-1.67897Zm2.3058 0c0 2.23777-1.7645 4.05927-3.935 4.05927-2.1704 0-3.93222-1.8215-3.93222-4.05927 0-2.24056 1.76182-4.06206 3.93222-4.06206 2.1705 0 3.935 1.8215 3.935 4.06206Zm-.0595 6.39477c-.7118.461-1.4831.7879-2.2841.9778l2.2002 2.2685c.4492.4638.4492 1.2181 0 1.6819-.452.4665-1.18.4665-1.6292 0l-2.1624-2.2294-2.1596 2.2294c-.2273.2318-.52231.3492-.8173.3492-.29498 0-.58726-.1174-.81459-.3492-.44925-.4638-.44925-1.2181 0-1.6819l2.20019-2.2685c-.801-.1899-1.57233-.5168-2.28409-.9778-.53856-.3492-.70093-1.0839-.36264-1.6399.33828-.5587 1.05004-.7263 1.58863-.3743 1.6129 1.0448 3.686 1.0448 5.2962 0 .5413-.352 1.2503-.1844 1.5913.3743.3383.556.1759 1.2907-.3626 1.6399Z"/></svg>
