<svg width="32" height="32" viewBox="0 0 32 32" fill="none" xmlns="http://www.w3.org/2000/svg"><circle cx="16" cy="16" r="16" fill="url(#a)"/><path d="M16.0289 24.9094c-1.0953 0-2.0357-.155-2.821-.465-.7647-.31-1.3537-.8577-1.767-1.643-.4133-.7854-.62-1.891-.62-3.317v-1.085H14.5719v1.395c0 .7646.062 1.3536.186 1.767.124.3926.2997.6716.527.837.2273.1446.496.217.806.217.4753 0 .8473-.1654 1.116-.496.2893-.3514.434-1.023.434-2.015 0-.7647-.124-1.333-.372-1.705-.2273-.3927-.5993-.7027-1.116-.93-.5167-.248-1.178-.5477-1.984-.899-.7233-.31-1.3227-.682-1.798-1.116-.4753-.434-.8267-.9817-1.054-1.643-.2273-.6614-.341-1.4674-.341-2.418 0-1.1987.155-2.17002.465-2.91402.3307-.744.868-1.28133 1.612-1.612.7647-.35133 1.7877-.527 3.069-.527 1.6533 0 2.914.36167 3.782 1.085.8887.70267 1.333 1.767 1.333 3.19302v2.201h-3.596v-1.116c0-.93-.1137-1.581-.341-1.95302-.2067-.372-.589-.558-1.147-.558-.5373 0-.9197.16534-1.147.496-.2273.33062-.341.86802-.341 1.61202 0 .682.1343 1.2193.403 1.612.2893.372.651.6613 1.085.868.434.186.899.372 1.395.558.9093.3513 1.6533.713 2.232 1.085.5787.3513 1.0023.8473 1.271 1.488.2687.62.403 1.519.403 2.697 0 1.3226-.2273 2.3766-.682 3.162-.434.7646-1.0643 1.3123-1.891 1.643-.806.3306-1.7567.496-2.852.496Z" fill="#fff"/><defs><linearGradient id="a" x1="7e-7" y1="15.7867" x2="17.8604" y2="-2.14038" gradientUnits="userSpaceOnUse"><stop stop-color="#003D85"/><stop offset=".885417" stop-color="#B80027"/></linearGradient></defs></svg>