<svg xmlns="http://www.w3.org/2000/svg" xmlns:xlink="http://www.w3.org/1999/xlink"><symbol id="icon-close" viewBox="0 0 20 20"><g fill="none"><path d="M.293 18.291a1 1 0 101.414 1.414L10 11.413l8.292 8.292a1 1 0 101.414-1.414l-8.292-8.292 8.292-8.292A1 1 0 1018.291.293L9.999 8.585 1.707.293A1 1 0 10.293 1.707L8.585 10 .293 18.291z"/></g></symbol><symbol id="play-button-triangle" viewBox="0 0 13 15"><g fill="none"><path d="M13 7.5.249999 14.8612.25.138783 13 7.5Z" fill="#fff"/></g></symbol><symbol id="socials-face" viewBox="0 0 25 25"><g fill="none"><path fill-rule="evenodd" clip-rule="evenodd" d="M0 12.5C0 5.59692 5.59692 0 12.5 0 19.4031 0 25 5.59692 25 12.5 25 19.4031 19.4031 25 12.5 25 5.59692 25 0 19.4031 0 12.5Zm12.7195-6.39259c.2681-.32581.686-.55175 1.1314-.55175.7198 0 1.2031.4923 1.4522.81812.0389.05053.0739.09758.1055.14007.0695.09346.1226.16479.1647.20239.0612.0547.0781.05708.1688.05708v1.21766c-.325 0-.6247-.14983-.8274-.32344-.1795-.15379-.2994-.31131-.4007-.44447-.013-.01716-.0258-.03391-.0383-.05021-.0223-.02896-.0427-.05618-.0619-.08171-.1683-.22393-.2389-.31783-.5629-.31783-.1668 0-.2385.04994-.3377.17123-.0992.12129-.1921.34247-.2702.64688-.1246.48516-.1689 1.12966-.1858 1.75038 1.2454.08562 2.3726.45662 3.3097 1.02739.3821-.3211.8422-.49942 1.2834-.49466.5024.00475.9794.22116 1.334.66586.6776.8491.5995 2.238-.1857 3.0632.0485.2545.0844.5161.0844.7801 0 2.7944-2.858 5.0609-6.383 5.0609-3.52502 0-6.38302-2.2641-6.38302-5.0609 0-.264.03588-.5256.08443-.7801-.78521-.8252-.86331-2.2141-.18575-3.0632.35462-.4447.83165-.66111 1.33402-.66586.44115-.00476.9013.17356 1.28335.49466.94141-.57314 2.07487-.94415 3.32657-1.02739.0127-.67304.0655-1.4198.2364-2.09284.1077-.41857.2554-.81574.5235-1.14156Zm3.124 1.27474c0-.94654.6796-1.71233 1.5197-1.71233.8401 0 1.5198.76579 1.5198 1.71233 0 .94654-.6797 1.71233-1.5198 1.71233-.8401 0-1.5197-.76579-1.5197-1.71233Zm2.4991 0c0-.60883-.439-1.1035-.9794-1.1035-.5403 0-.9794.49467-.9794 1.1035s.4391 1.1035.9794 1.1035c.5404 0 .9794-.49467.9794-1.1035Zm-.3208 7.00155c0-2.2142-2.5308-4.0906-5.5218-4.0906-2.99099 0-5.52182 1.8764-5.52182 4.0906 0 2.2165 2.53083 4.0905 5.52182 4.0905 2.991 0 5.5218-1.874 5.5218-4.0905ZM7.82249 10.959c-.14986-.0737-.30606-.1118-.45593-.1141-.27651-.0024-.52769.1141-.70922.3424-.24907.3116-.30395.899-.10132 1.3699.2934-.6017.724-1.1344 1.26647-1.5982Zm10.52011.2283c-.1815-.2283-.4327-.3448-.7092-.3424-.1499.0023-.3061.0404-.4559.1141.5425.4638.9731.9965 1.2664 1.5982.2027-.4709.1478-1.0583-.1013-1.3699Zm-8.98346 2.2831c0-.6088.43905-1.1035.97936-1.1035.5404 0 .9794.4947.9794 1.1035 0 .6089-.439 1.1035-.9794 1.1035-.54031 0-.97936-.4946-.97936-1.1035Zm4.32286 0c0-.6088.4391-1.1035.9794-1.1035.5404 0 .9794.4947.9794 1.1035 0 .6089-.439 1.1035-.9794 1.1035-.5403 0-.9794-.4946-.9794-1.1035ZM12.5 17.6942c-1.277 0-2.3409-.7777-2.68493-1.5792.62483.4543 1.59363.7611 2.68493.7611s2.077-.3068 2.7018-.7611c-.3441.8015-1.4248 1.5792-2.7018 1.5792Z" fill="#fff"/></g></symbol><symbol id="socials-ok" viewBox="0 0 25 25"><g fill="none"><path fill-rule="evenodd" clip-rule="evenodd" d="M0 12.5C0 5.59692 5.59692 0 12.5 0 19.4031 0 25 5.59692 25 12.5 25 19.4031 19.4031 25 12.5 25 5.59692 25 0 19.4031 0 12.5Zm14.3095-3.92937c0-.92752-.7307-1.68182-1.6292-1.68182s-1.6292.7543-1.6292 1.68182c0 .92472.7307 1.67897 1.6292 1.67897s1.6292-.75425 1.6292-1.67897Zm2.3058 0c0 2.23777-1.7645 4.05927-3.935 4.05927-2.1704 0-3.93222-1.8215-3.93222-4.05927 0-2.24056 1.76182-4.06206 3.93222-4.06206 2.1705 0 3.935 1.8215 3.935 4.06206Zm-.0595 6.39477c-.7118.461-1.4831.7879-2.2841.9778l2.2002 2.2685c.4492.4638.4492 1.2181 0 1.6819-.452.4665-1.18.4665-1.6292 0l-2.1624-2.2294-2.1596 2.2294c-.2273.2318-.52231.3492-.8173.3492-.29498 0-.58726-.1174-.81459-.3492-.44925-.4638-.44925-1.2181 0-1.6819l2.20019-2.2685c-.801-.1899-1.57233-.5168-2.28409-.9778-.53856-.3492-.70093-1.0839-.36264-1.6399.33828-.5587 1.05004-.7263 1.58863-.3743 1.6129 1.0448 3.686 1.0448 5.2962 0 .5413-.352 1.2503-.1844 1.5913.3743.3383.556.1759 1.2907-.3626 1.6399Z" fill="#fff"/></g></symbol><symbol id="socials-vk" viewBox="0 0 25 25"><g fill="none"><path fill-rule="evenodd" clip-rule="evenodd" d="M0 12.5C0 5.59692 5.59692 0 12.5 0 19.4031 0 25 5.59692 25 12.5 25 19.4031 19.4031 25 12.5 25 5.59692 25 0 19.4031 0 12.5Zm14.6407 3.2196c-.3383-.3921-.6508-.7542-.918-.6678-.4473.1435-.4329 1.1201-.4329 1.1201s.0046.2088-.0991.32c-.1111.1194-.3283.1444-.3283.1444h-.7201s-1.5892.0977-2.98757-1.3757c-1.52529-1.6049-2.87231-4.7912-2.87231-4.7912s-.07733-.2084.00695-.3093c.09492-.1139.3533-.1213.3533-.1213l1.71978-.0111s.16207.0273.27783.1129c.09724.0723.15095.2042.15095.2042s.27737.7104.64457 1.3531c.7191 1.2567 1.0534 1.5308 1.2979 1.3965.3561-.1958.2501-1.7753.2501-1.7753s.0055-.5728-.1801-.8284c-.1445-.1973-.4145-.2551-.5349-.2713-.0958-.013.0621-.23944.2681-.3427.3103-.15234.8576-.16206 1.5022-.15234.5042.00463.6487.03612.8464.08427.456.11132.4419.46897.4114 1.24097-.0091.2299-.0196.4965-.0196.8043 0 .07-.0021.1446-.0042.2214-.0109.394-.0233.8444.2329 1.0122.1334.0866.4552.013 1.2614-1.3711.3559-.6103.6288-1.3209.665-1.4152.0026-.0068.004-.0104.0041-.0105.0681-.1834.2176-.238.394-.2385l1.812-.0125s.5431-.06483.632.1848c.0926.2593-.2033.8682-.9427 1.8651-.7025.9467-1.0442 1.2941-1.0119 1.6022.0236.2242.2451.4276.6697.8261.8943.8389 1.1312 1.2778 1.187 1.3812.0043.0081.0076.0141.0099.0181.3973.6677-.4431.7196-.4431.7196l-1.6082.0231s-.3468.0681-.7997-.2472c-.2391-.165-.4725-.4355-.6948-.6931Z" fill="#fff"/></g></symbol></svg>