<svg width="25" height="25" viewBox="0 0 25 25" xmlns="http://www.w3.org/2000/svg"><path fill-rule="evenodd" clip-rule="evenodd" d="M0 12.5C0 5.59692 5.59692 0 12.5 0 19.4031 0 25 5.59692 25 12.5 25 19.4031 19.4031 25 12.5 25 5.59692 25 0 19.4031 0 12.5Zm12.7195-6.39259c.2681-.32581.686-.55175 1.1314-.55175.7198 0 1.2031.4923 1.4522.81812.0389.05053.0739.09758.1055.14007.0695.09346.1226.16479.1647.20239.0612.0547.0781.05708.1688.05708v1.21766c-.325 0-.6247-.14983-.8274-.32344-.1795-.15379-.2994-.31131-.4007-.44447-.013-.01716-.0258-.03391-.0383-.05021-.0223-.02896-.0427-.05618-.0619-.08171-.1683-.22393-.2389-.31783-.5629-.31783-.1668 0-.2385.04994-.3377.17123-.0992.12129-.1921.34247-.2702.64688-.1246.48516-.1689 1.12966-.1858 1.75038 1.2454.08562 2.3726.45662 3.3097 1.02739.3821-.3211.8422-.49942 1.2834-.49466.5024.00475.9794.22116 1.334.66586.6776.8491.5995 2.238-.1857 3.0632.0485.2545.0844.5161.0844.7801 0 2.7944-2.858 5.0609-6.383 5.0609-3.52502 0-6.38302-2.2641-6.38302-5.0609 0-.264.03588-.5256.08443-.7801-.78521-.8252-.86331-2.2141-.18575-3.0632.35462-.4447.83165-.66111 1.33402-.66586.44115-.00476.9013.17356 1.28335.49466.94141-.57314 2.07487-.94415 3.32657-1.02739.0127-.67304.0655-1.4198.2364-2.09284.1077-.41857.2554-.81574.5235-1.14156Zm3.124 1.27474c0-.94654.6796-1.71233 1.5197-1.71233.8401 0 1.5198.76579 1.5198 1.71233 0 .94654-.6797 1.71233-1.5198 1.71233-.8401 0-1.5197-.76579-1.5197-1.71233Zm2.4991 0c0-.60883-.439-1.1035-.9794-1.1035-.5403 0-.9794.49467-.9794 1.1035s.4391 1.1035.9794 1.1035c.5404 0 .9794-.49467.9794-1.1035Zm-.3208 7.00155c0-2.2142-2.5308-4.0906-5.5218-4.0906-2.99099 0-5.52182 1.8764-5.52182 4.0906 0 2.2165 2.53083 4.0905 5.52182 4.0905 2.991 0 5.5218-1.874 5.5218-4.0905ZM7.82249 10.959c-.14986-.0737-.30606-.1118-.45593-.1141-.27651-.0024-.52769.1141-.70922.3424-.24907.3116-.30395.899-.10132 1.3699.2934-.6017.724-1.1344 1.26647-1.5982Zm10.52011.2283c-.1815-.2283-.4327-.3448-.7092-.3424-.1499.0023-.3061.0404-.4559.1141.5425.4638.9731.9965 1.2664 1.5982.2027-.4709.1478-1.0583-.1013-1.3699Zm-8.98346 2.2831c0-.6088.43905-1.1035.97936-1.1035.5404 0 .9794.4947.9794 1.1035 0 .6089-.439 1.1035-.9794 1.1035-.54031 0-.97936-.4946-.97936-1.1035Zm4.32286 0c0-.6088.4391-1.1035.9794-1.1035.5404 0 .9794.4947.9794 1.1035 0 .6089-.439 1.1035-.9794 1.1035-.5403 0-.9794-.4946-.9794-1.1035ZM12.5 17.6942c-1.277 0-2.3409-.7777-2.68493-1.5792.62483.4543 1.59363.7611 2.68493.7611s2.077-.3068 2.7018-.7611c-.3441.8015-1.4248 1.5792-2.7018 1.5792Z"/></svg>
