<svg viewBox="0 0 194 74" fill="none" xmlns="http://www.w3.org/2000/svg"><path opacity=".48" d="M2.05469 38.0391 5.57031 1.90625H39.9941V13.7227H16.8984L15.6289 28.957c2.6693-1.7903 5.4199-2.6855 8.252-2.6855 5.8593 0 10.3678 2.0833 13.5253 6.25 3.1902 4.1667 4.7852 10.0586 4.7852 17.6758 0 7.1289-1.888 12.8743-5.6641 17.2363-3.776 4.362-8.8216 6.543-15.1367 6.543-3.7435 0-7.2103-.8789-10.4004-2.6368-3.19007-1.7903-5.71286-4.2643-7.56832-7.4218C1.59896 60.7604.671224 57.1797.638672 53.1758H14.3105c.2279 2.9622.9603 5.2571 2.1973 6.8847 1.237 1.6277 2.832 2.4415 4.7852 2.4415 2.2786 0 4.0364-1.0905 5.2734-3.2715 1.237-2.2136 1.8555-5.5013 1.8555-9.8633 0-4.1016-.7487-7.194-2.2461-9.2774-1.4649-2.0833-3.5319-3.125-6.2012-3.125-2.6042 0-4.6224.8952-6.0547 2.6856l-.8789 1.2207-10.98631-2.832Zm90.47851 5.5664c0 9.8307-1.7904 17.3502-5.3711 22.5586-3.5482 5.2083-8.6263 7.8125-15.2344 7.8125-6.5429 0-11.6048-2.5228-15.1855-7.5684-3.5482-5.0781-5.3874-12.3372-5.5176-21.7773V31.2031c0-9.7982 1.7741-17.2851 5.3223-22.46091C60.0951 3.53385 65.1895.929688 71.8301.929688c6.6406 0 11.735 2.571612 15.2832 7.714842 3.5482 5.14327 5.3548 12.48377 5.4199 22.02147v12.9395ZM78.666 29.2012c0-5.599-.5534-9.7982-1.6601-12.5977-1.1068-2.7995-2.8321-4.1992-5.1758-4.1992-4.3946 0-6.6732 5.1269-6.836 15.3809v17.7246c0 5.7291.5534 9.9935 1.6602 12.7929 1.1393 2.7995 2.8971 4.1993 5.2734 4.1993 2.2461 0 3.9063-1.3021 4.9805-3.9063 1.1068-2.6367 1.6927-6.6569 1.7578-12.0605v-17.334Zm64.453 14.4043c0 9.8307-1.79 17.3502-5.371 22.5586-3.548 5.2083-8.626 7.8125-15.234 7.8125-6.543 0-11.605-2.5228-15.186-7.5684-3.548-5.0781-5.387-12.3372-5.517-21.7773V31.2031c0-9.7982 1.774-17.2851 5.322-22.46091 3.548-5.20834 8.642-7.812502 15.283-7.812502S134.151 3.5013 137.699 8.64453c3.548 5.14327 5.355 12.48377 5.42 22.02147v12.9395Zm-13.867-14.4043c0-5.599-.553-9.7982-1.66-12.5977-1.107-2.7995-2.832-4.1992-5.176-4.1992-4.395 0-6.673 5.1269-6.836 15.3809v17.7246c0 5.7291.553 9.9935 1.66 12.7929 1.14 2.7995 2.897 4.1993 5.274 4.1993 2.246 0 3.906-1.3021 4.98-3.9063 1.107-2.6367 1.693-6.6569 1.758-12.0605v-17.334Zm64.453 14.4043c0 9.8307-1.79 17.3502-5.371 22.5586-3.548 5.2083-8.626 7.8125-15.234 7.8125-6.543 0-11.605-2.5228-15.186-7.5684-3.548-5.0781-5.387-12.3372-5.518-21.7773V31.2031c0-9.7982 1.775-17.2851 5.323-22.46091 3.548-5.20834 8.642-7.812502 15.283-7.812502S184.737 3.5013 188.285 8.64453c3.548 5.14327 5.355 12.48377 5.42 22.02147v12.9395Zm-13.867-14.4043c0-5.599-.553-9.7982-1.66-12.5977-1.107-2.7995-2.832-4.1992-5.176-4.1992-4.395 0-6.673 5.1269-6.836 15.3809v17.7246c0 5.7291.553 9.9935 1.66 12.7929 1.139 2.7995 2.897 4.1993 5.274 4.1993 2.246 0 3.906-1.3021 4.98-3.9063 1.107-2.6367 1.693-6.6569 1.758-12.0605v-17.334Z" fill="#E8E8E8"/></svg>
